<?xml version="1.0" standalone="no"?>
<!DOCTYPE svg PUBLIC "-//W3C//DTD SVG 20010904//EN"
 "http://www.w3.org/TR/2001/REC-SVG-20010904/DTD/svg10.dtd">
<svg version="1.0" xmlns="http://www.w3.org/2000/svg"
 width="360.000000pt" height="360.000000pt" viewBox="0 0 360.000000 360.000000"
 preserveAspectRatio="xMidYMid meet">

<g transform="translate(0.000000,360.000000) scale(0.100000,-0.100000)"
fill="#000000" stroke="none">
<path d="M1106 2933 c-61 -59 -203 -197 -316 -308 -113 -110 -299 -293 -415
-406 -116 -114 -245 -240 -287 -281 -42 -41 -80 -87 -83 -101 -18 -72 -19 -71
428 -508 232 -227 497 -487 590 -578 92 -91 179 -172 194 -179 16 -9 43 -12
70 -9 40 4 55 14 151 109 59 57 294 286 522 509 228 222 446 434 484 469 79
76 96 103 96 162 1 43 0 44 -202 242 -112 109 -216 207 -233 217 -83 52 -185
-12 -185 -114 l0 -51 124 -121 c135 -131 152 -162 126 -225 -12 -28 -758 -769
-823 -817 -22 -17 -45 -23 -80 -23 -49 0 -51 1 -146 92 -109 106 -458 446
-633 619 l-118 116 0 54 -1 54 408 402 c247 243 423 408 445 419 62 28 98 14
193 -75 88 -83 118 -97 177 -81 65 19 106 89 87 152 -9 34 -190 225 -302 319
-53 45 -63 49 -109 49 l-50 0 -112 -107z"/>
<path d="M2246 3011 c-20 -16 -231 -220 -469 -453 -238 -232 -490 -479 -560
-548 -136 -132 -157 -160 -157 -210 0 -44 20 -78 77 -129 26 -25 118 -114 204
-198 l157 -153 55 0 c66 0 111 30 126 86 17 60 -1 90 -128 218 -129 132 -143
158 -118 217 18 41 -16 6 436 449 204 201 386 373 404 383 40 21 69 22 110 1
18 -10 213 -195 435 -412 423 -415 427 -420 411 -492 -8 -36 -53 -82 -641
-650 l-206 -200 -50 0 c-55 0 -67 7 -170 105 -61 58 -73 63 -126 64 -32 1 -45
-6 -77 -38 -33 -32 -39 -45 -39 -80 0 -23 6 -54 14 -69 16 -29 319 -323 345
-334 26 -11 84 -8 108 5 22 12 484 461 956 927 247 245 257 257 257 293 0 57
-19 84 -137 196 -59 57 -202 196 -318 309 -814 799 -751 742 -813 742 -39 0
-57 -6 -86 -29z"/>
</g>
</svg>
